General                          : ChattChitto RG - Movies
==========
Complete name                    : The Twilight Saga-New Moon 2009 BDRip.mp4
Format                           : MPEG-4
Format profile                   : Base Media
Codec ID                         : isom
File size                        : 2.41 GiB
Duration                         : 2h 10mn
Overall bit rate                 : 2 646 Kbps
Encoded date                     : UTC 2010-03-20 19:08:49

Video
==========
ID                               : 1
Format                           : AVC
Format/Info                      : Advanced Video Codec
Format profile                   : High@L3.1
Format settings, CABAC           : Yes
Format settings, ReFrames        : 3 frames
Codec ID                         : avc1
Codec ID/Info                    : Advanced Video Coding
Duration                         : 2h 10mn
Bit rate mode                    : Variable
Bit rate                         : 2 300 Kbps
Maximum bit rate                 : 22.3 Mbps
Width                            : 1 280 pixels
Height                           : 528 pixels
Display aspect ratio             : 2.40:1
Frame rate mode                  : Constant
Frame rate                       : 23.976 fps
Resolution                       : 8 bits
Colorimetry                      : 4:2:0
Scan type                        : Progressive
Bits/(Pixel*Frame)               : 0.142
Stream size                      : 2.10 GiB (87%)
Writing library                  : x264 core 76 r1271 496d79d
Encoded date                     : UTC 2010-03-20 15:20:28

Audio
==========
ID                               : 2
Format                           : AAC
Format/Info                      : Advanced Audio Codec
Format version                   : Version 4
Format profile                   : LC
Format settings, SBR             : No
Codec ID                         : 40
Duration                         : 2h 10mn
Bit rate mode                    : Variable
Bit rate                         : 343 Kbps
Maximum bit rate                 : 433 Kbps
Channel(s)                       : 6 channels
Channel positions                : Front: L C R, Side: L R, LFE
Sampling rate                    : 48.0 KHz
Stream size                      : 320 MiB (13%)
Encoded date                     : UTC 2010-03-20 19:10:09

Subtitles                        : English | Spanish [.srt]



----------------------------------------------------
IMDB Link: http://www.imdb.com/title/tt1259571/
----------------------------------------------------


Screen Shots:
============== 
http://bayimg.com/gAllbaaCg 
http://bayimg.com/GalLaaAcg 
http://bayimg.com/FalLpaacg 
http://bayimg.com/fAlLOAaCg 
http://bayimg.com/falLnAaCg



Plot:
======
The relationship between mortal Bella and vampire Edward is continuing to blossom and grow even though ancient secrets are in line to destroy them. When Edward leaves in order to keep the love of his life Bella safe; she takes it upon herself to test her life in many reckless ways. Things don't go as she planned though when her good friend Jacob ends up saving her which opens her eyes and mind to many more secrets that could threaten all their existence.


Release Info:
==============
original name .... : The Twilight Saga-New Moon 2009 BDRip
ripper.............: Recalled2Life (R2L)
encoder............: Recalled2Life (R2L)
video codec........: H264/.MP4                   
video bitrate......: 2300 Kbps                           
audio codec........: AAC-LC
aspect ratio.......: 2.40:1                              
resolution.........: 1280 x 528                             
genre..............: Drama | Fantasy | Romance
runtime............: 2h 10mn
language...........: English
subtitles..........: English | Spanish
2ch Audio..........: 2ch Audio for XBox Viewers



Source:
========
The Twilight Saga: New Moon Blu-Ray 1080p MPEG-TS/AVC|DTS Master Audio [31.4 GB]


Notes:
=======
ChattChitto RG Encourages Burning this Film with ConvertXtoDVD.
Enhanced and Filtered for your viewing pleasure ;)